<?xml version="1.0" encoding="UTF-8" standalone="no"?><!DOCTYPE svg PUBLIC "-//W3C//DTD SVG 1.1//EN" "http://www.w3.org/Graphics/SVG/1.1/DTD/svg11.dtd"><svg width="100%" height="100%" viewBox="0 0 706 150" version="1.1" xmlns="http://www.w3.org/2000/svg" xmlns:xlink="http://www.w3.org/1999/xlink" xml:space="preserve" xmlns:serif="http://www.serif.com/" style="fill-rule:evenodd;clip-rule:evenodd;stroke-linejoin:round;stroke-miterlimit:2;"><g><path d="M49.848,116.254c-33.231,0 -49.848,-18.37 -49.848,-55.116c0,-11.544 1.821,-21.418 5.459,-29.629c3.642,-8.206 8.938,-14.456 15.891,-18.747c6.948,-4.292 15.346,-6.436 25.183,-6.436c7.28,0 14.192,1.617 20.745,4.855c6.549,3.238 9.824,10.101 9.824,20.592l-14.756,-0c0,-7.83 -5.223,-11.745 -15.664,-11.745c-6.172,0 -11.553,1.581 -16.149,4.746c-4.592,3.161 -8.143,7.766 -10.655,13.815c-2.507,6.05 -3.765,13.316 -3.765,21.795c0,14.006 3.039,24.511 9.111,31.514c6.076,7.003 15.137,10.504 27.181,10.504c7.28,0 14.46,-1.507 21.536,-4.518l3.465,13.252c-8.738,3.41 -17.921,5.118 -27.558,5.118Z" style="fill:url(#_Linear1);fill-rule:nonzero;"/><path d="M160.829,1.808l0,112.938l-14.306,0.754l-1.353,-13.098l-1.808,0c-0.504,4.515 -2.634,7.953 -6.399,10.314c-3.764,2.357 -8.71,3.538 -14.832,3.538c-6.731,0 -12.462,-1.567 -17.208,-4.705c-4.741,-3.138 -8.356,-7.743 -10.841,-13.815c-2.484,-6.077 -3.728,-13.452 -3.728,-22.14c-0,-8.883 1.244,-16.486 3.728,-22.812c2.485,-6.327 6.122,-11.132 10.918,-14.42c4.791,-3.288 10.555,-4.932 17.281,-4.932c6.371,0 11.304,1.317 14.791,3.956c3.493,2.634 5.587,6.635 6.29,12.008l1.504,-0l-0,-47.586l15.963,-0Zm-36.141,100.894c13.452,0 20.178,-4.519 20.178,-13.552l-0,-19.279c-0,-15.259 -6.776,-22.889 -20.328,-22.889c-5.872,0 -10.405,2.484 -13.588,7.457c-3.189,4.969 -4.783,12.022 -4.783,21.155c0,8.937 1.554,15.686 4.669,20.255c3.111,4.569 7.73,6.853 13.852,6.853Z" style="fill:url(#_Linear2);fill-rule:nonzero;"/><path d="M251.183,1.808l-0,112.938l-14.306,0.754l-1.358,-13.098l-1.803,0c-0.504,4.515 -2.638,7.953 -6.403,10.314c-3.765,2.357 -8.706,3.538 -14.833,3.538c-6.726,0 -12.462,-1.567 -17.203,-4.705c-4.742,-3.138 -8.357,-7.743 -10.841,-13.815c-2.484,-6.077 -3.729,-13.452 -3.729,-22.14c0,-8.883 1.245,-16.486 3.729,-22.812c2.484,-6.327 6.122,-11.132 10.918,-14.42c4.791,-3.288 10.55,-4.932 17.276,-4.932c6.376,0 11.308,1.317 14.796,3.956c3.488,2.634 5.586,6.635 6.29,12.008l1.503,-0l0,-47.586l15.964,-0Zm-36.142,100.894c13.452,0 20.178,-4.519 20.178,-13.552l0,-19.279c0,-15.259 -6.775,-22.889 -20.327,-22.889c-5.873,0 -10.405,2.484 -13.593,7.457c-3.188,4.969 -4.778,12.022 -4.778,21.155c0,8.937 1.553,15.686 4.664,20.255c3.116,4.569 7.734,6.853 13.856,6.853Z" style="fill:url(#_Linear3);fill-rule:nonzero;"/><path d="M302.834,116.254c-6.122,0 -11.331,-0.177 -15.623,-0.527c-4.292,-0.349 -8.17,-0.926 -11.636,-1.73l1.808,-14.456c10.241,1.603 18.725,2.407 25.451,2.407c8.029,0 13.879,-0.79 17.544,-2.37c3.665,-1.581 5.495,-4.106 5.495,-7.567c-0,-2.311 -0.613,-4.069 -1.844,-5.272c-1.231,-1.204 -3.224,-2.158 -5.986,-2.861l-18.37,-4.669c-5.123,-1.304 -9.21,-2.811 -12.276,-4.519c-3.061,-1.703 -5.345,-3.874 -6.849,-6.513c-1.507,-2.634 -2.261,-5.935 -2.261,-9.9c-0,-5.872 1.421,-10.627 4.255,-14.265c2.834,-3.642 7.253,-6.313 13.252,-8.02c6,-1.708 13.816,-2.562 23.453,-2.562c7.33,0 14.356,0.504 21.082,1.508l-1.653,13.852c-7.58,-0.7 -14.206,-1.054 -19.879,-1.054c-8.433,0 -14.533,0.768 -18.298,2.298c-3.765,1.531 -5.645,4.028 -5.645,7.489c0,2.212 0.65,3.869 1.958,4.973c1.303,1.104 3.51,2.057 6.626,2.861l14.755,3.611c5.723,1.408 10.341,3.065 13.856,4.973c3.511,1.907 6.122,4.291 7.83,7.153c1.708,2.861 2.561,6.399 2.561,10.613c0,5.772 -1.38,10.455 -4.141,14.043c-2.762,3.592 -7.04,6.24 -12.839,7.943c-5.8,1.707 -13.339,2.561 -22.626,2.561Z" style="fill:url(#_Linear4);fill-rule:nonzero;"/><path d="M405.386,33.43c6.726,0 12.485,1.644 17.276,4.932c4.796,3.288 8.434,8.093 10.918,14.42c2.489,6.326 3.728,13.929 3.728,22.812c0,8.688 -1.239,16.063 -3.728,22.14c-2.484,6.072 -6.095,10.677 -10.841,13.815c-4.741,3.138 -10.477,4.705 -17.203,4.705c-6.127,0 -11.068,-1.181 -14.833,-3.538c-3.765,-2.361 -5.899,-5.799 -6.403,-10.314l-1.504,0l0,46.983l-15.963,-0l0,-114.447l14.456,-0l1.28,14.456l1.731,-0c0.704,-5.373 2.802,-9.374 6.29,-12.008c3.488,-2.639 8.42,-3.956 14.796,-3.956Zm-2.412,69.272c6.122,0 10.741,-2.284 13.857,-6.853c3.111,-4.569 4.664,-11.318 4.664,-20.255c-0,-9.133 -1.59,-16.186 -4.778,-21.155c-3.188,-4.973 -7.72,-7.457 -13.593,-7.457c-13.552,0 -20.328,7.63 -20.328,22.889l0,19.279c0,9.033 6.726,13.552 20.178,13.552Z" style="fill:url(#_Linear5);fill-rule:nonzero;"/><path d="M489.713,116.254c-2.007,0 -3.865,-0.499 -5.572,-1.508c-1.708,-1.003 -3.061,-2.357 -4.065,-4.064c-1.004,-1.708 -1.508,-3.565 -1.508,-5.573c0,-2.007 0.504,-3.865 1.508,-5.568c1.004,-1.707 2.357,-3.065 4.065,-4.069c1.707,-1.004 3.565,-1.503 5.572,-1.503c2.008,-0 3.865,0.499 5.573,1.503c1.707,1.004 3.061,2.362 4.064,4.069c1.004,1.703 1.508,3.561 1.508,5.568c0,2.008 -0.504,3.865 -1.508,5.573c-1.003,1.707 -2.357,3.061 -4.064,4.064c-1.708,1.009 -3.565,1.508 -5.573,1.508Z" style="fill:#fff;fill-rule:nonzero;"/><path d="M584.431,22.285c-2.007,0 -3.865,-0.499 -5.568,-1.503c-1.707,-1.004 -3.065,-2.362 -4.069,-4.065c-1.003,-1.707 -1.503,-3.565 -1.503,-5.572c-0,-2.007 0.5,-3.865 1.503,-5.573c1.004,-1.707 2.362,-3.061 4.069,-4.064c1.703,-1.004 3.561,-1.508 5.568,-1.508c2.008,0 3.865,0.504 5.573,1.508c1.707,1.003 3.061,2.357 4.064,4.064c1.009,1.708 1.508,3.566 1.508,5.573c0,2.007 -0.499,3.865 -1.508,5.572c-1.003,1.703 -2.357,3.061 -4.064,4.065c-1.708,1.004 -3.565,1.503 -5.573,1.503Zm8.888,79.364l24.543,-0l-0,13.097l-70.926,0l0,-13.097l30.42,-0l-0,-53.459l-25.901,0l0,-13.252l41.864,-0l0,66.711Z" style="fill:#fff;fill-rule:nonzero;"/><path d="M670.421,116.254c-7.33,0 -13.616,-1.617 -18.861,-4.855c-5.246,-3.238 -9.238,-7.957 -11.976,-14.156c-2.734,-6.199 -4.101,-13.665 -4.101,-22.399c-0,-8.737 1.367,-16.204 4.101,-22.403c2.738,-6.199 6.73,-10.918 11.976,-14.151c5.245,-3.238 11.531,-4.86 18.861,-4.86c7.325,0 13.615,1.622 18.861,4.86c5.245,3.233 9.233,7.952 11.971,14.151c2.734,6.199 4.101,13.666 4.101,22.403c0,8.734 -1.367,16.2 -4.101,22.399c-2.738,6.199 -6.726,10.918 -11.971,14.156c-5.246,3.238 -11.536,4.855 -18.861,4.855Zm-0,-14.306c5.872,0 10.4,-2.348 13.588,-7.039c3.188,-4.696 4.782,-11.381 4.782,-20.065c0,-8.683 -1.594,-15.373 -4.782,-20.069c-3.188,-4.691 -7.716,-7.039 -13.588,-7.039c-5.877,0 -10.405,2.348 -13.593,7.039c-3.188,4.696 -4.782,11.386 -4.782,20.069c-0,8.684 1.594,15.369 4.782,20.065c3.188,4.691 7.716,7.039 13.593,7.039Z" style="fill:#fff;fill-rule:nonzero;"/></g><defs><linearGradient id="_Linear1" x1="0" y1="0" x2="1" y2="0" gradientUnits="userSpaceOnUse" gradientTransform="matrix(462.605,0,0,462.605,-7.22557,63.2453)"><stop offset="0" style="stop-color:#ff7862;stop-opacity:1"/><stop offset="1" style="stop-color:#e2af49;stop-opacity:1"/></linearGradient><linearGradient id="_Linear2" x1="0" y1="0" x2="1" y2="0" gradientUnits="userSpaceOnUse" gradientTransform="matrix(462.605,0,0,462.605,-7.22557,63.2453)"><stop offset="0" style="stop-color:#ff7862;stop-opacity:1"/><stop offset="1" style="stop-color:#e2af49;stop-opacity:1"/></linearGradient><linearGradient id="_Linear3" x1="0" y1="0" x2="1" y2="0" gradientUnits="userSpaceOnUse" gradientTransform="matrix(462.605,0,0,462.605,-7.22557,63.2453)"><stop offset="0" style="stop-color:#ff7862;stop-opacity:1"/><stop offset="1" style="stop-color:#e2af49;stop-opacity:1"/></linearGradient><linearGradient id="_Linear4" x1="0" y1="0" x2="1" y2="0" gradientUnits="userSpaceOnUse" gradientTransform="matrix(462.605,0,0,462.605,-7.22557,63.2453)"><stop offset="0" style="stop-color:#ff7862;stop-opacity:1"/><stop offset="1" style="stop-color:#e2af49;stop-opacity:1"/></linearGradient><linearGradient id="_Linear5" x1="0" y1="0" x2="1" y2="0" gradientUnits="userSpaceOnUse" gradientTransform="matrix(462.605,0,0,462.605,-7.22557,63.2453)"><stop offset="0" style="stop-color:#ff7862;stop-opacity:1"/><stop offset="1" style="stop-color:#e2af49;stop-opacity:1"/></linearGradient></defs></svg>