<?xml version="1.0" encoding="UTF-8" standalone="no"?><!DOCTYPE svg PUBLIC "-//W3C//DTD SVG 1.1//EN" "http://www.w3.org/Graphics/SVG/1.1/DTD/svg11.dtd"><svg width="100%" height="100%" viewBox="0 0 1000 1000" version="1.1" xmlns="http://www.w3.org/2000/svg" xmlns:xlink="http://www.w3.org/1999/xlink" xml:space="preserve" xmlns:serif="http://www.serif.com/" style="fill-rule:evenodd;clip-rule:evenodd;stroke-linecap:round;stroke-linejoin:round;stroke-miterlimit:1.5;"><g id="Artboard1"><rect x="0" y="0" width="1000" height="1000" style="fill:none;"/><g><g><path d="M989.635,98.515c0,-50.464 -40.973,-91.435 -91.444,-91.435l-796.398,-0c-50.472,-0 -91.435,40.971 -91.435,91.435l0,802.956c0,50.465 40.963,91.436 91.435,91.436l796.398,-0c50.471,-0 91.444,-40.971 91.444,-91.436l0,-802.956Z" style="fill:#0a0d14;"/><g><clipPath id="_clip1"><path d="M989.635,98.515c0,-50.464 -40.973,-91.435 -91.444,-91.435l-796.398,-0c-50.472,-0 -91.435,40.971 -91.435,91.435l0,802.956c0,50.465 40.963,91.436 91.435,91.436l796.398,-0c50.471,-0 91.444,-40.971 91.444,-91.436l0,-802.956Z"/></clipPath><g clip-path="url(#_clip1)"><g><path d="M989.631,99.325l-0,7.873l-979.277,0l-0,-7.873c-0,-50.937 41.312,-92.248 92.189,-92.248l794.91,-0c50.937,-0 92.178,41.311 92.178,92.248Z" style="fill:url(#_Linear2);fill-rule:nonzero;"/></g></g></g><path d="M989.635,98.515c0,-50.464 -40.973,-91.435 -91.444,-91.435l-796.398,-0c-50.472,-0 -91.435,40.971 -91.435,91.435l0,802.956c0,50.465 40.963,91.436 91.435,91.436l796.398,-0c50.471,-0 91.444,-40.971 91.444,-91.436l0,-802.956Z" style="fill:none;stroke:#fff;stroke-width:7.88px;"/></g><g><g><g><text x="33.456px" y="590.076px" style="font-family:'HiraKakuStd-W8', 'Hiragino Kaku Gothic Std', sans-serif;font-weight:800;font-size:525.411px;fill:#0060b4;stroke:#000;stroke-width:3.87px;stroke-linecap:butt;stroke-miterlimit:2;">&lt;</text><text x="332.418px" y="590.076px" style="font-family:'HiraKakuStd-W8', 'Hiragino Kaku Gothic Std', sans-serif;font-weight:800;font-size:525.411px;stroke:#ff7862;stroke-width:3.87px;stroke-linecap:butt;stroke-miterlimit:2;">&gt;</text></g><g><text x="368.639px" y="835.93px" style="font-family:'HiraKakuStd-W8', 'Hiragino Kaku Gothic Std', sans-serif;font-weight:800;font-size:525.411px;fill:#0060b4;stroke:#000;stroke-width:3.87px;stroke-linecap:butt;stroke-miterlimit:2;">&lt;</text><text x="667.601px" y="835.93px" style="font-family:'HiraKakuStd-W8', 'Hiragino Kaku Gothic Std', sans-serif;font-weight:800;font-size:525.411px;stroke:#ffc263;stroke-width:3.87px;stroke-linecap:butt;stroke-miterlimit:2;">&gt;</text></g></g><g><g><text x="33.456px" y="547.961px" style="font-family:'HiraKakuStd-W8', 'Hiragino Kaku Gothic Std', sans-serif;font-weight:800;font-size:525.411px;fill:#00b2ff;stroke:#000;stroke-width:3.87px;stroke-linecap:butt;stroke-miterlimit:2;">&lt;</text><text x="332.418px" y="547.961px" style="font-family:'HiraKakuStd-W8', 'Hiragino Kaku Gothic Std', sans-serif;font-weight:800;font-size:525.411px;stroke:#ff7863;stroke-width:3.87px;stroke-linecap:butt;stroke-miterlimit:2;">&gt;</text></g><g><text x="368.639px" y="793.815px" style="font-family:'HiraKakuStd-W8', 'Hiragino Kaku Gothic Std', sans-serif;font-weight:800;font-size:525.411px;fill:#00b2ff;stroke:#000;stroke-width:3.87px;stroke-linecap:butt;stroke-miterlimit:2;">&lt;</text><text x="667.601px" y="793.815px" style="font-family:'HiraKakuStd-W8', 'Hiragino Kaku Gothic Std', sans-serif;font-weight:800;font-size:525.411px;stroke:#ffc264;stroke-width:3.87px;stroke-linecap:butt;stroke-miterlimit:2;">&gt;</text></g></g></g><g><path d="M143.537,74.885c-6.928,6.927 -18.159,6.927 -25.094,-0c-6.927,-6.927 -6.927,-18.159 -0,-25.086c6.935,-6.927 18.166,-6.927 25.094,-0c6.919,6.927 6.919,18.159 -0,25.086Z" style="fill:#182e35;fill-rule:nonzero;"/></g><g><path d="M195.637,74.885c-6.92,6.927 -18.151,6.927 -25.079,-0c-6.927,-6.927 -6.927,-18.159 0,-25.086c6.928,-6.927 18.159,-6.927 25.079,-0c6.927,6.927 6.927,18.159 0,25.086Z" style="fill:#182e35;fill-rule:nonzero;"/></g><g><path d="M247.743,74.885c-6.919,6.927 -18.159,6.927 -25.078,-0c-6.928,-6.927 -6.928,-18.159 -0,-25.086c6.919,-6.927 18.159,-6.927 25.078,-0c6.935,6.927 6.935,18.159 0,25.086Z" style="fill:#182e35;fill-rule:nonzero;"/></g></g></g><defs><linearGradient id="_Linear2" x1="0" y1="0" x2="1" y2="0" gradientUnits="userSpaceOnUse" gradientTransform="matrix(-1358.17,-472.096,472.096,-1358.17,1446.17,403.464)"><stop offset="0" style="stop-color:#ff7862;stop-opacity:1"/><stop offset="1" style="stop-color:#e2af49;stop-opacity:1"/></linearGradient></defs></svg>