<svg xmlns="http://www.w3.org/2000/svg" width="20" height="20" viewBox="0 0 20 20">
  <g id="telegram" transform="translate(-4140 -2040)">
    <rect id="Rectangle_11" data-name="Rectangle 11" width="18" height="17" transform="translate(4141 2042)"/>
    <g id="telegram-2" data-name="telegram" transform="translate(4138 2038)">
      <path id="Path_61" data-name="Path 61" d="M9.885,16.953l.72-.843-1.088-.63Z" fill="#ffc263"/>
      <path id="Path_62" data-name="Path 62" d="M15.784,7.824,6.8,13.631,8.9,16.2,8.55,14.785a.384.384,0,0,1,.112-.375Z" fill="#ffc263"/>
      <path id="Path_63" data-name="Path 63" d="M4.391,12.046l1.824,1.045,8.912-5.759Z" fill="#ffc263"/>
      <path id="Path_64" data-name="Path 64" d="M18.923,2H5.077A3.014,3.014,0,0,0,2,5.077V18.923A3.014,3.014,0,0,0,5.077,22H18.923A3.014,3.014,0,0,0,22,18.923V5.077A3.014,3.014,0,0,0,18.923,2Zm.762,3.145c0,.005,0,.011,0,.016L16.607,19.008a.384.384,0,0,1-.552.258L11.1,16.713,9.984,18.02a.444.444,0,0,1-.3.135.384.384,0,0,1-.293-.142L5.97,13.837l-2.623-1.5a.385.385,0,0,1,.036-.686l15.77-6.923a.381.381,0,0,1,.535.37A.285.285,0,0,1,19.685,5.145Z" fill="#ffc263"/>
      <path id="Path_65" data-name="Path 65" d="M15.97,18.327,18.662,6.21l-9.1,8.41Z" fill="#ffc263"/>
    </g>
  </g>
</svg>
