<svg xmlns="http://www.w3.org/2000/svg" width="20" height="20" viewBox="0 0 20 20">
  <g id="twitter" transform="translate(-4170 -2040)">
    <rect id="Rectangle_12" data-name="Rectangle 12" width="18" height="16" transform="translate(4171 2042)"/>
    <path id="twitter-2" data-name="twitter" d="M18.923,2H5.077A3.014,3.014,0,0,0,2,5.077V18.923A3.014,3.014,0,0,0,5.077,22H18.923A3.014,3.014,0,0,0,22,18.923V5.077A3.014,3.014,0,0,0,18.923,2ZM17,9.5a1.561,1.561,0,0,1,.009.192c0,3.536-2.65,7.692-7.292,7.692A6.827,6.827,0,0,1,5.846,16.23c.2.025,2.692,0,3.846-1.154A3.045,3.045,0,0,1,7,13.154c.769.384,1.154,0,1.154,0a2.641,2.641,0,0,1-1.923-2.693,2.47,2.47,0,0,0,1.154.387A2.44,2.44,0,0,1,6.231,8.922,2.584,2.584,0,0,1,7,7.384a5.141,5.141,0,0,0,5,2.687,2.607,2.607,0,0,1,2.308-3.456,2.091,2.091,0,0,1,1.9,1.017A4.64,4.64,0,0,0,17.77,7a2.858,2.858,0,0,1-1.154,1.539,5.408,5.408,0,0,0,1.539-.385A4.771,4.771,0,0,1,17,9.5Z" transform="translate(4168 2038)" fill="#ffc263"/>
  </g>
</svg>
